<svg width="60" height="68" viewBox="0 0 60 68" fill="none" xmlns="http://www.w3.org/2000/svg">
<path d="M32.8938 58.5036C19.8583 58.4298 9.27211 47.5557 9.22431 34.0984C9.17652 20.5796 19.7627 9.5702 32.8938 9.5087V58.5036ZM52.477 27.0007C56.2288 27.0007 59.2755 30.1375 59.2755 34C59.2755 37.8625 56.2288 40.9993 52.477 40.9993C48.7253 40.9993 45.6784 37.8625 45.6784 34C45.6904 30.1375 48.7253 27.0007 52.477 27.0007ZM46.6821 9.49638H58.2719V21.4284L46.6821 9.49638ZM46.6821 58.5036H58.2719V46.5717L46.6821 58.5036ZM32.8938 0C14.6488 0.0738061 -0.0714288 15.3517 0.000260744 34.1353C0.0719503 52.8329 14.7802 67.9385 32.8938 68V58.5036H42.1298V9.5087H32.8938V0Z" fill="#991B1F"/>
</svg>
