<svg width="16" height="16" viewBox="0 0 16 16" fill="none" xmlns="http://www.w3.org/2000/svg">
<g clip-path="url(#clip0_456_19)">
<path d="M10.8124 0.75H5.18744C2.599 0.75 0.499939 2.84906 0.499939 5.4375V11.0625C0.499939 13.6509 2.599 15.75 5.18744 15.75H10.8124C13.4009 15.75 15.4999 13.6509 15.4999 11.0625V5.4375C15.4999 2.84906 13.4009 0.75 10.8124 0.75ZM14.0937 11.0625C14.0937 12.8719 12.6218 14.3437 10.8124 14.3437H5.18744C3.37806 14.3437 1.90619 12.8719 1.90619 11.0625V5.4375C1.90619 3.62812 3.37806 2.15625 5.18744 2.15625H10.8124C12.6218 2.15625 14.0937 3.62812 14.0937 5.4375V11.0625Z" fill="#991B1F"/>
<path d="M7.99994 4.5C5.929 4.5 4.24994 6.17906 4.24994 8.25C4.24994 10.3209 5.929 12 7.99994 12C10.0709 12 11.7499 10.3209 11.7499 8.25C11.7499 6.17906 10.0709 4.5 7.99994 4.5ZM7.99994 10.5937C6.70806 10.5937 5.65619 9.54187 5.65619 8.25C5.65619 6.95719 6.70806 5.90625 7.99994 5.90625C9.29181 5.90625 10.3437 6.95719 10.3437 8.25C10.3437 9.54187 9.29181 10.5937 7.99994 10.5937Z" fill="#991B1F"/>
<path d="M12.0312 4.71836C12.3072 4.71836 12.5309 4.49465 12.5309 4.21868C12.5309 3.94271 12.3072 3.71899 12.0312 3.71899C11.7552 3.71899 11.5315 3.94271 11.5315 4.21868C11.5315 4.49465 11.7552 4.71836 12.0312 4.71836Z" fill="#991B1F"/>
</g>
<defs>
<clipPath id="clip0_456_19">
<rect width="15" height="15" fill="white" transform="translate(0.499939 0.75)"/>
</clipPath>
</defs>
</svg>
