<svg width="97" height="52" viewBox="0 0 97 52" fill="none" xmlns="http://www.w3.org/2000/svg">
<path d="M69.3876 51.0203C68.4676 51.0203 67.5834 50.9342 66.7231 50.7497C65.8629 50.5651 65.1699 50.3314 64.6322 50.0362L65.4088 46.4443H65.9704C66.3408 47.0225 66.759 47.6129 67.2249 48.2279C67.6909 48.843 68.1091 49.3227 68.4795 49.6795C68.8021 49.7779 69.1845 49.8271 69.6146 49.8271C71.1918 49.8271 71.9923 49.335 71.9923 48.3509C71.9923 47.9573 71.8728 47.6006 71.6339 47.2808C71.3949 46.9609 71.0842 46.6903 70.7019 46.4443C70.3195 46.2106 69.8297 45.9277 69.2203 45.6324L68.8499 45.4356C68.0255 45.0297 67.3445 44.6483 66.8068 44.2793C66.2691 43.9103 65.827 43.4552 65.4805 42.9016C65.134 42.3481 64.9548 41.6838 64.9548 40.8965C64.9548 39.6172 65.4566 38.6455 66.4483 37.9935C67.452 37.3293 68.7902 36.9971 70.4629 36.9971C71.1082 36.9971 71.8011 37.0586 72.53 37.1939C73.2708 37.3292 73.916 37.5015 74.4775 37.7106L73.8682 41.2164H73.2947C72.3747 39.728 71.6697 38.7562 71.1679 38.2887C70.69 38.2272 70.3434 38.2026 70.1403 38.2026C69.519 38.2026 69.0411 38.3133 68.7185 38.547C68.4078 38.7808 68.2406 39.1006 68.2406 39.5188C68.2406 39.9248 68.3481 40.2938 68.5751 40.6259C68.8021 40.9457 69.1008 41.241 69.4832 41.487C69.8655 41.733 70.3554 42.0159 70.9528 42.3111L71.3232 42.4957C72.1238 42.8893 72.7929 43.2706 73.3425 43.652C73.8921 44.0333 74.3461 44.5007 74.7165 45.042C75.075 45.5955 75.2661 46.2352 75.2661 46.9732C75.2661 47.8466 75.0152 48.5847 74.5134 49.1997C74.0116 49.8148 73.3066 50.2699 72.4344 50.5774C71.5383 50.8727 70.5346 51.0203 69.3876 51.0203ZM60.283 51.0203C59.1599 51.0203 58.2399 50.7127 57.523 50.11C56.818 49.4949 56.4596 48.597 56.4596 47.3915V38.5347H54.8107V37.7106L56.4238 36.2837L59.5661 33.7866H60.295V37.3293H64.1662V38.5347H60.3786V46.9363C60.3786 47.6006 60.522 48.0926 60.8087 48.3755C61.0955 48.6708 61.5137 48.8184 62.0752 48.8184C62.4934 48.8184 62.8399 48.7446 63.1267 48.5847C63.4135 48.4248 63.7361 48.191 64.0945 47.8958L64.7039 48.843C64.226 49.458 63.6046 49.9747 62.828 50.4052C62.0514 50.8112 61.203 51.0203 60.283 51.0203ZM39.3377 50.1715L40.9269 48.5601V40.3307L39.4811 38.6208V38.0919L44.3918 36.9971L44.7384 37.3416L44.583 39.3097H44.8578C45.5031 38.6208 46.2319 38.055 47.0324 37.6245C47.8329 37.1939 48.6813 36.9725 49.5774 36.9725C50.3182 36.9725 50.9992 37.1447 51.6086 37.4645C52.206 37.7967 52.684 38.2518 53.0304 38.8423C53.3769 39.4327 53.5442 40.097 53.5442 40.8473V48.5478L55.1214 50.1592V50.7004H48.1077V50.1592L49.6132 48.5478V41.5608C49.6132 40.8227 49.434 40.22 49.0875 39.7648C48.741 39.3097 48.287 39.0883 47.7373 39.0883C47.2475 39.0883 46.7457 39.2728 46.2319 39.6295C45.7301 39.9986 45.276 40.4168 44.8698 40.8842V48.5478L46.3753 50.1592V50.7004H39.3616V50.1715H39.3377ZM33.6026 38.2272C32.7901 38.2272 32.2046 38.67 31.8462 39.5434C31.4877 40.4168 31.2846 41.4747 31.2249 42.7171L35.6577 42.4342C35.6577 40.8965 35.4904 39.8018 35.1439 39.1744C34.8094 38.5347 34.2836 38.2272 33.6026 38.2272ZM35.1917 48.8061C35.6696 48.8061 36.1117 48.72 36.506 48.5355C36.9003 48.3509 37.2468 48.1295 37.5216 47.8958C37.7964 47.6621 38.1071 47.3546 38.4416 46.9732L39.266 47.8835C38.4894 48.9045 37.6411 49.6794 36.745 50.2207C35.8369 50.7619 34.7496 51.0326 33.4472 51.0326C32.1927 51.0326 31.0815 50.7497 30.1376 50.1715C29.1937 49.5934 28.4529 48.7938 27.9391 47.7728C27.4134 46.7518 27.1625 45.5709 27.1625 44.2547C27.1625 42.8401 27.4373 41.5731 27.9988 40.466C28.5604 39.3589 29.349 38.5101 30.3527 37.8951C31.3563 37.28 32.5153 36.9725 33.8057 36.9725C34.9886 36.9725 36.0281 37.2677 36.9003 37.8582C37.7725 38.4486 38.4416 39.2359 38.8956 40.2569C39.3497 41.2656 39.5767 42.3972 39.5767 43.652H31.201C31.2129 44.6729 31.4041 45.5832 31.7387 46.3582C32.0852 47.1332 32.5511 47.7359 33.1605 48.1664C33.7699 48.597 34.4509 48.8061 35.1917 48.8061ZM16.4449 39.4696L15.0947 37.8582V37.3293H22.0606V37.8582L20.806 39.4819L23.0642 45.8293L25.5255 39.4819L24.271 37.8582V37.3293H28.3214V37.8582L26.8399 39.5065L22.2637 50.725H21.0808L16.4449 39.4696ZM0.541748 50.1838L2.3101 47.9573V34.4262L0.541748 32.212V31.6708H10.8889L14.5332 31.3878L15.0589 36.1237L14.342 36.1361L10.9009 33.0854H6.50395V40.2569H9.72996L11.331 38.0181H11.9284V43.9349H11.331L9.72996 41.6592H6.50395V49.3104H11.2354L15.3218 46.0999L15.8355 46.1122L15.3695 50.7128H0.541748V50.1838ZM92.5791 20.6122C91.456 20.6122 90.536 20.3046 89.8191 19.7019C89.1142 19.0868 88.7557 18.1889 88.7557 16.9834V8.12666H87.1069V7.30247L88.7199 5.87555L91.8623 3.37845H92.5911V6.92115H96.4623V8.12666H92.6747V16.5282C92.6747 17.1925 92.8181 17.6845 93.1049 17.9675C93.3916 18.2627 93.8098 18.4103 94.3714 18.4103C94.7896 18.4103 95.1361 18.3365 95.4228 18.1766C95.7096 18.0167 96.0322 17.7829 96.3906 17.4877L97 18.4349C96.5221 19.0499 95.9008 19.5666 95.1241 19.9971C94.3355 20.3908 93.4992 20.6122 92.5791 20.6122ZM80.0216 19.4067C81.073 19.4067 81.8496 18.9638 82.3395 18.0904C82.8294 17.2048 83.0803 15.864 83.0803 14.068C83.0803 12.2475 82.8294 10.8821 82.3395 9.9964C81.8496 9.11073 81.1327 8.66787 80.2008 8.66787C79.687 8.66787 79.2091 8.8278 78.7789 9.14763C78.3368 9.46745 78.0023 9.83646 77.7753 10.2424V17.9797C77.9784 18.398 78.289 18.7424 78.6953 19.013C79.1254 19.2713 79.5556 19.4067 80.0216 19.4067ZM72.2671 25.2496L73.8682 23.6382V9.91028L72.4224 8.21274V7.65921L77.3332 6.57672L77.6797 6.92115L77.5244 8.88932H77.7872C78.3607 8.18816 78.994 7.63462 79.687 7.20408C80.38 6.77355 81.1088 6.56441 81.8735 6.56441C82.9369 6.56441 83.8689 6.83505 84.6814 7.38859C85.4938 7.92984 86.1271 8.70478 86.5811 9.71346C87.0352 10.7098 87.2622 11.8661 87.2622 13.1824C87.2622 14.6093 86.9874 15.8886 86.4378 17.008C85.8881 18.1273 85.0876 19.013 84.0481 19.6527C83.0086 20.2924 81.766 20.6122 80.3322 20.6122C79.4122 20.6122 78.5639 20.403 77.7753 19.9848V23.6628L79.5436 25.262V25.8032H72.2671V25.2496ZM66.3288 7.80682C65.5163 7.80682 64.9309 8.24967 64.5725 9.12304C64.214 9.99641 64.0109 11.0543 63.9511 12.2967L68.3839 12.0137C68.3839 10.4761 68.2167 9.38134 67.8702 8.75398C67.5356 8.12663 67.0099 7.80682 66.3288 7.80682ZM67.918 18.3857C68.3959 18.3857 68.838 18.2996 69.2323 18.1151C69.6266 17.9306 69.9731 17.7091 70.2479 17.4754C70.5227 17.2417 70.8333 16.9342 71.1679 16.5528L71.9923 17.4631C71.2157 18.4841 70.3673 19.2591 69.4712 19.8003C68.5632 20.3416 67.4759 20.6122 66.1735 20.6122C64.919 20.6122 63.8078 20.3292 62.8638 19.7511C61.9199 19.1729 61.1791 18.3734 60.6654 17.3524C60.1396 16.3314 59.8887 15.1505 59.8887 13.8343C59.8887 12.4197 60.1636 11.1527 60.7251 10.0456C61.2867 8.93852 62.0753 8.08972 63.0789 7.47467C64.0826 6.85962 65.2416 6.55209 66.532 6.55209C67.7148 6.55209 68.7543 6.84732 69.6266 7.43777C70.4988 8.02822 71.1679 8.8155 71.6219 9.83648C72.076 10.8452 72.303 11.9769 72.303 13.2316H63.9272C63.9392 14.2526 64.1303 15.1628 64.4649 15.9378C64.8114 16.7127 65.2774 17.3155 65.8867 17.746C66.4961 18.1766 67.1772 18.3857 67.918 18.3857ZM53.6876 20.6122C52.4689 20.6122 51.3935 20.3415 50.4615 19.7757C49.5176 19.2221 48.7888 18.4349 48.275 17.4139C47.7493 16.3929 47.4864 15.2243 47.4864 13.8835C47.4864 12.4443 47.7971 11.165 48.4064 10.0579C49.0278 8.9508 49.8761 8.08972 50.9753 7.47467C52.0626 6.85962 53.3172 6.55209 54.7032 6.55209C55.4081 6.55209 56.1728 6.62593 56.9853 6.77354C57.7978 6.92115 58.455 7.09335 58.9687 7.29016L58.3355 11.1896H57.6305C56.7941 9.78728 56.0294 8.66789 55.3603 7.84372C55.2887 7.83142 55.1931 7.8068 55.0736 7.78219C54.9541 7.75759 54.8346 7.74529 54.739 7.74529C54.1297 7.74529 53.592 7.94212 53.1141 8.33576C52.6361 8.72939 52.2657 9.29524 52.0029 10.0333C51.74 10.7714 51.6086 11.6324 51.6086 12.6042C51.6086 13.7974 51.7759 14.8184 52.0865 15.6918C52.4091 16.5528 52.8631 17.2171 53.4486 17.6845C54.0341 18.1397 54.7152 18.3734 55.4918 18.3734C56.137 18.3734 56.7344 18.2012 57.3079 17.869C57.8814 17.5246 58.3952 17.1187 58.8612 16.6266L59.6139 17.4754C58.9329 18.4226 58.1084 19.1729 57.1167 19.7388C56.1131 20.3169 54.978 20.6122 53.6876 20.6122ZM31.7984 19.7511L33.3875 18.1397V9.91028L31.9418 8.20046V7.67149L36.8525 6.57672L37.199 6.92115L37.0437 8.88932H37.3185C37.9637 8.20046 38.6925 7.63462 39.4931 7.20408C40.2936 6.77355 41.1419 6.55209 42.038 6.55209C42.7788 6.55209 43.4599 6.72434 44.0693 7.04416C44.6667 7.37629 45.1446 7.83142 45.4911 8.42187C45.8376 9.01232 46.0049 9.67658 46.0049 10.4269V18.1151L47.5821 19.7265V20.2678H40.5684V19.7265L42.0739 18.1151V11.1281C42.0739 10.39 41.8947 9.78727 41.5482 9.33213C41.2017 8.877 40.7476 8.65559 40.198 8.65559C39.7081 8.65559 39.2063 8.84011 38.6925 9.19684C38.1907 9.56587 37.7367 9.98409 37.3304 10.4515V18.1273L38.8359 19.7388V20.28H31.8223V19.7511H31.7984ZM24.737 19.4067C25.657 19.4067 26.3619 18.9515 26.8637 18.029C27.3656 17.1064 27.6165 15.6549 27.6165 13.6867C27.6165 11.7062 27.3656 10.2301 26.8518 9.24602C26.338 8.26194 25.6331 7.78219 24.7131 7.78219C23.805 7.78219 23.1001 8.26194 22.5863 9.24602C22.0845 10.2178 21.8335 11.7063 21.8335 13.699C21.8335 15.6795 22.0845 17.1187 22.5863 18.0413C23.112 18.9515 23.8289 19.4067 24.737 19.4067ZM24.725 20.6122C23.3988 20.6122 22.192 20.3046 21.1166 19.7142C20.0413 19.1114 19.193 18.275 18.5836 17.2048C17.9743 16.1346 17.6636 14.9291 17.6636 13.6006C17.6636 12.2721 17.9743 11.0789 18.5836 10.021C19.2049 8.9508 20.0533 8.11435 21.1286 7.4993C22.2039 6.88424 23.4107 6.57672 24.725 6.57672C26.0513 6.57672 27.2581 6.88424 28.3334 7.4993C29.4087 8.11435 30.2571 8.9508 30.8784 10.021C31.4997 11.0912 31.7984 12.2844 31.7984 13.6006C31.7984 14.9291 31.4877 16.1346 30.8784 17.2048C30.2571 18.275 29.4087 19.1114 28.3334 19.7142C27.2581 20.3046 26.0513 20.6122 24.725 20.6122ZM10.184 20.6122C8.32007 20.6122 6.65928 20.2062 5.2016 19.3821C3.74391 18.5579 2.60882 17.4139 1.79634 15.9501C0.983855 14.474 0.577591 12.8133 0.577591 10.9559C0.577591 9.03692 0.971895 7.32709 1.78438 5.81406C2.58491 4.30104 3.72001 3.10782 5.2016 2.25905C6.67123 1.39798 8.37983 0.979736 10.3154 0.979736C11.1757 0.979736 11.9284 1.01666 12.5736 1.07817C13.2189 1.13967 13.7924 1.22577 14.2822 1.33648C14.7721 1.43488 15.4174 1.59479 16.182 1.79161L16.7197 7.25326H15.9072C15.6324 6.30608 15.2501 5.46964 14.7363 4.74388C14.2345 4.01812 13.6251 3.43994 12.9082 3.02171C12.1913 2.60347 11.4027 2.39438 10.5305 2.39438C8.71437 2.39438 7.36421 3.12013 6.45615 4.57165C5.54808 6.01087 5.10599 8.12666 5.10599 10.8944C5.10599 13.6375 5.57198 15.7164 6.49199 17.1064C7.41201 18.4964 8.73825 19.1976 10.4707 19.1976C11.7373 19.1976 12.8485 18.7793 13.8043 17.9183C14.7602 17.0695 15.4651 15.8763 15.9072 14.3263H16.7197L16.182 19.788C15.0709 20.0955 14.115 20.317 13.3144 20.4277C12.5139 20.5507 11.4744 20.6122 10.184 20.6122Z" fill="#991B1F"/>
</svg>
