<svg width="19" height="12" viewBox="0 0 19 12" fill="none" xmlns="http://www.w3.org/2000/svg">
<path d="M15.5586 7.17812C15.2555 6.79531 15.3422 6.625 15.5586 6.28281C15.5625 6.2789 18.0648 2.82109 18.3226 1.64844L18.3242 1.64766C18.4523 1.22031 18.3242 0.90625 17.7047 0.90625H15.6547C15.1328 0.90625 14.8922 1.17578 14.7633 1.47734C14.7633 1.47734 13.7195 3.97578 12.243 5.59531C11.7664 6.06328 11.5461 6.21328 11.2859 6.21328C11.1578 6.21328 10.9586 6.06328 10.9586 5.63594V1.64766C10.9586 1.13516 10.8125 0.90625 10.3805 0.90625H7.15703C6.82969 0.90625 6.63515 1.14531 6.63515 1.36797C6.63515 1.85391 7.37344 1.96562 7.45 3.33281V6.29922C7.45 6.94922 7.33203 7.06875 7.07031 7.06875C6.37344 7.06875 4.68203 4.56016 3.67969 1.68906C3.47734 1.13203 3.27969 0.907031 2.75391 0.907031H0.703125C0.117969 0.907031 0 1.17656 0 1.47812C0 2.01094 0.696874 4.66016 3.24062 8.16015C4.93594 10.5492 7.32343 11.8437 9.49531 11.8437C10.8008 11.8437 10.9602 11.5562 10.9602 11.0617C10.9602 8.7789 10.8422 8.56328 11.4961 8.56328C11.7992 8.56328 12.3211 8.71328 13.5398 9.86562C14.9328 11.232 15.1617 11.8437 15.9414 11.8437H17.9914C18.5758 11.8437 18.8719 11.5562 18.7016 10.9891C18.3117 9.79609 15.6773 7.34219 15.5586 7.17812Z" fill="#991B1F"/>
</svg>
