<svg width="16" height="16" viewBox="0 0 16 16" fill="none" xmlns="http://www.w3.org/2000/svg">
<g clip-path="url(#clip0_1_85)">
<path d="M10.8124 0.749985H5.18744C2.599 0.749985 0.499939 2.84905 0.499939 5.43748V11.0625C0.499939 13.6509 2.599 15.75 5.18744 15.75H10.8124C13.4009 15.75 15.4999 13.6509 15.4999 11.0625V5.43748C15.4999 2.84905 13.4009 0.749985 10.8124 0.749985ZM14.0937 11.0625C14.0937 12.8719 12.6218 14.3437 10.8124 14.3437H5.18744C3.37806 14.3437 1.90619 12.8719 1.90619 11.0625V5.43748C1.90619 3.62811 3.37806 2.15623 5.18744 2.15623H10.8124C12.6218 2.15623 14.0937 3.62811 14.0937 5.43748V11.0625Z" fill="white"/>
<path d="M7.99994 4.49998C5.929 4.49998 4.24994 6.17905 4.24994 8.24998C4.24994 10.3209 5.929 12 7.99994 12C10.0709 12 11.7499 10.3209 11.7499 8.24998C11.7499 6.17905 10.0709 4.49998 7.99994 4.49998ZM7.99994 10.5937C6.70806 10.5937 5.65619 9.54186 5.65619 8.24998C5.65619 6.95717 6.70806 5.90623 7.99994 5.90623C9.29181 5.90623 10.3437 6.95717 10.3437 8.24998C10.3437 9.54186 9.29181 10.5937 7.99994 10.5937Z" fill="white"/>
<path d="M12.0312 4.71841C12.3072 4.71841 12.5309 4.49469 12.5309 4.21872C12.5309 3.94276 12.3072 3.71904 12.0312 3.71904C11.7552 3.71904 11.5315 3.94276 11.5315 4.21872C11.5315 4.49469 11.7552 4.71841 12.0312 4.71841Z" fill="white"/>
</g>
<defs>
<clipPath id="clip0_1_85">
<rect width="15" height="15" fill="white" transform="translate(0.499939 0.749985)"/>
</clipPath>
</defs>
</svg>
