<svg width="34" height="34" viewBox="0 0 34 34" fill="none" xmlns="http://www.w3.org/2000/svg">
<path d="M23.4453 2H10.5547C9.34309 2 8.35742 2.98566 8.35742 4.19727V29.8027C8.35742 31.0143 9.34309 32 10.5547 32H23.4453C24.6569 32 25.6426 31.0143 25.6426 29.8027V4.19727C25.6426 2.98566 24.6569 2 23.4453 2ZM24.7637 25.8477H12.3125C12.0698 25.8477 11.873 26.0444 11.873 26.2871C11.873 26.5298 12.0698 26.7266 12.3125 26.7266H24.7637V29.8027C24.7637 30.5297 24.1723 31.1211 23.4453 31.1211H10.5547C9.82771 31.1211 9.23633 30.5297 9.23633 29.8027V26.7266H10.5547C10.7974 26.7266 10.9941 26.5298 10.9941 26.2871C10.9941 26.0444 10.7974 25.8477 10.5547 25.8477H9.23633V6.39453H24.7637V25.8477ZM24.7637 5.51562H9.23633V4.19727C9.23633 3.47029 9.82771 2.87891 10.5547 2.87891H23.4453C24.1723 2.87891 24.7637 3.47029 24.7637 4.19727V5.51562Z" fill="#991B1F"/>
<path d="M18.7578 3.75781H17C16.7573 3.75781 16.5605 3.95457 16.5605 4.19727C16.5605 4.43996 16.7573 4.63672 17 4.63672H18.7578C19.0005 4.63672 19.1973 4.43996 19.1973 4.19727C19.1973 3.95457 19.0005 3.75781 18.7578 3.75781Z" fill="#991B1F"/>
<path d="M17 27.6055C16.273 27.6055 15.6816 28.1969 15.6816 28.9238C15.6816 29.6508 16.273 30.2422 17 30.2422C17.727 30.2422 18.3184 29.6508 18.3184 28.9238C18.3184 28.1969 17.727 27.6055 17 27.6055ZM17 29.3633C16.7577 29.3633 16.5605 29.1662 16.5605 28.9238C16.5605 28.6815 16.7577 28.4844 17 28.4844C17.2423 28.4844 17.4395 28.6815 17.4395 28.9238C17.4395 29.1662 17.2423 29.3633 17 29.3633Z" fill="#991B1F"/>
<path d="M15.2422 4.63672C15.4849 4.63672 15.6816 4.43997 15.6816 4.19727C15.6816 3.95456 15.4849 3.75781 15.2422 3.75781C14.9995 3.75781 14.8027 3.95456 14.8027 4.19727C14.8027 4.43997 14.9995 4.63672 15.2422 4.63672Z" fill="#991B1F"/>
<rect x="1" y="1" width="32" height="32" stroke="white" stroke-width="2"/>
</svg>
