<svg width="60" height="64" viewBox="0 0 60 64" fill="none" xmlns="http://www.w3.org/2000/svg">
<path d="M32.8938 54.9872C19.8583 54.9179 9.27211 44.7056 9.22431 32.0673C9.17652 19.3712 19.7627 9.03185 32.8938 8.97409V54.9872ZM52.477 25.4016C56.2288 25.4016 59.2755 28.3474 59.2755 31.9749C59.2755 35.6023 56.2288 38.5481 52.477 38.5481C48.7253 38.5481 45.6784 35.6023 45.6784 31.9749C45.6904 28.3474 48.7253 25.4016 52.477 25.4016ZM46.6821 8.96253H58.2719V20.1683L46.6821 8.96253ZM46.6821 54.9872H58.2719V43.7814L46.6821 54.9872ZM32.8938 0.0440979C14.6488 0.113412 -0.0714288 14.4615 0.000260744 32.1019C0.0719503 49.6615 14.7802 63.8478 32.8938 63.9056V54.9872H42.1298V8.97409H32.8938V0.0440979Z" fill="white"/>
</svg>
