<svg width="97" height="48" viewBox="0 0 97 48" fill="none" xmlns="http://www.w3.org/2000/svg">
<path d="M69.3876 47.4724C68.4676 47.4724 67.5834 47.3915 66.7231 47.2182C65.8629 47.045 65.1699 46.8254 64.6322 46.5482L65.4088 43.1749H65.9704C66.3408 43.7179 66.759 44.2724 67.2249 44.85C67.6909 45.4276 68.1091 45.8782 68.4795 46.2132C68.8021 46.3056 69.1845 46.3518 69.6146 46.3518C71.1918 46.3518 71.9923 45.8897 71.9923 44.9655C71.9923 44.5958 71.8728 44.2608 71.6339 43.9605C71.3949 43.6601 71.0842 43.406 70.7019 43.1749C70.3195 42.9554 69.8297 42.6897 69.2203 42.4125L68.8499 42.2276C68.0255 41.8464 67.3445 41.4883 66.8068 41.1417C66.2691 40.7951 65.827 40.3677 65.4805 39.8478C65.134 39.328 64.9548 38.7041 64.9548 37.9648C64.9548 36.7633 65.4566 35.8507 66.4483 35.2384C67.452 34.6146 68.7902 34.3027 70.4629 34.3027C71.1082 34.3027 71.8011 34.3604 72.53 34.4875C73.2708 34.6146 73.916 34.7763 74.4775 34.9727L73.8682 38.2652H73.2947C72.3747 36.8673 71.6697 35.9547 71.1679 35.5157C70.69 35.4579 70.3434 35.4348 70.1403 35.4348C69.519 35.4348 69.0411 35.5388 68.7185 35.7583C68.4078 35.9778 68.2406 36.2781 68.2406 36.6709C68.2406 37.0522 68.3481 37.3987 68.5751 37.7106C68.8021 38.011 69.1008 38.2883 69.4832 38.5193C69.8655 38.7504 70.3554 39.016 70.9528 39.2933L71.3232 39.4666C72.1238 39.8363 72.7929 40.1944 73.3425 40.5525C73.8921 40.9106 74.3461 41.3496 74.7165 41.8579C75.075 42.3778 75.2661 42.9785 75.2661 43.6717C75.2661 44.4919 75.0152 45.185 74.5134 45.7626C74.0116 46.3403 73.3066 46.7677 72.4344 47.0565C71.5383 47.3338 70.5346 47.4724 69.3876 47.4724ZM60.283 47.4724C59.1599 47.4724 58.2399 47.1836 57.523 46.6175C56.818 46.0399 56.4596 45.1966 56.4596 44.0644V35.7467H54.8107V34.9727L56.4238 33.6326L59.5661 31.2875H60.295V34.6146H64.1662V35.7467H60.3786V43.637C60.3786 44.2608 60.522 44.7229 60.8087 44.9886C61.0955 45.2659 61.5137 45.4045 62.0752 45.4045C62.4934 45.4045 62.8399 45.3352 63.1267 45.185C63.4135 45.0348 63.7361 44.8153 64.0945 44.5381L64.7039 45.4276C64.226 46.0052 63.6046 46.4904 62.828 46.8948C62.0514 47.276 61.203 47.4724 60.283 47.4724ZM39.3377 46.6753L40.9269 45.1619V37.4334L39.4811 35.8276V35.3308L44.3918 34.3027L44.7384 34.6262L44.583 36.4745H44.8578C45.5031 35.8276 46.2319 35.2962 47.0324 34.8918C47.8329 34.4875 48.6813 34.2796 49.5774 34.2796C50.3182 34.2796 50.9992 34.4413 51.6086 34.7417C52.206 35.0536 52.684 35.481 53.0304 36.0355C53.3769 36.59 53.5442 37.2139 53.5442 37.9186V45.1504L55.1214 46.6637V47.172H48.1077V46.6637L49.6132 45.1504V38.5886C49.6132 37.8955 49.434 37.3294 49.0875 36.902C48.741 36.4745 48.287 36.2666 47.7373 36.2666C47.2475 36.2666 46.7457 36.4399 46.2319 36.7749C45.7301 37.1215 45.276 37.5142 44.8698 37.9532V45.1504L46.3753 46.6637V47.172H39.3616V46.6753H39.3377ZM33.6026 35.4579C32.7901 35.4579 32.2046 35.8738 31.8462 36.694C31.4877 37.5142 31.2846 38.5078 31.2249 39.6745L35.6577 39.4088C35.6577 37.9648 35.4904 36.9366 35.1439 36.3475C34.8094 35.7467 34.2836 35.4579 33.6026 35.4579ZM35.1917 45.3929C35.6696 45.3929 36.1117 45.3121 36.506 45.1388C36.9003 44.9655 37.2468 44.7576 37.5216 44.5381C37.7964 44.3186 38.1071 44.0298 38.4416 43.6717L39.266 44.5265C38.4894 45.4854 37.6411 46.2132 36.745 46.7215C35.8369 47.2298 34.7496 47.4839 33.4472 47.4839C32.1927 47.4839 31.0815 47.2182 30.1376 46.6753C29.1937 46.1323 28.4529 45.3814 27.9391 44.4226C27.4134 43.4637 27.1625 42.3547 27.1625 41.1186C27.1625 39.7901 27.4373 38.6002 27.9988 37.5604C28.5604 36.5207 29.349 35.7236 30.3527 35.146C31.3563 34.5684 32.5153 34.2796 33.8057 34.2796C34.9886 34.2796 36.0281 34.5568 36.9003 35.1113C37.7725 35.6659 38.4416 36.4052 38.8956 37.3641C39.3497 38.3114 39.5767 39.3742 39.5767 40.5525H31.201C31.2129 41.5113 31.4041 42.3662 31.7387 43.094C32.0852 43.8218 32.5511 44.3879 33.1605 44.7922C33.7699 45.1966 34.4509 45.3929 35.1917 45.3929ZM16.4449 36.6247L15.0947 35.1113V34.6146H22.0606V35.1113L20.806 36.6363L23.0642 42.5973L25.5255 36.6363L24.271 35.1113V34.6146H28.3214V35.1113L26.8399 36.6594L22.2637 47.1951H21.0808L16.4449 36.6247ZM0.541748 46.6868L2.3101 44.5958V31.8882L0.541748 29.8088V29.3005H10.8889L14.5332 29.0348L15.0589 33.4825L14.342 33.494L10.9009 30.629H6.50395V37.3641H9.72996L11.331 35.2615H11.9284V40.8182H11.331L9.72996 38.681H6.50395V45.8666H11.2354L15.3218 42.8514L15.8355 42.863L15.3695 47.1836H0.541748V46.6868ZM92.5791 18.9149C91.456 18.9149 90.536 18.6261 89.8191 18.06C89.1142 17.4824 88.7557 16.6391 88.7557 15.507V7.18929H87.1069V6.41526L88.7199 5.07518L91.8623 2.73005H92.5911V6.05714H96.4623V7.18929H92.6747V15.0795C92.6747 15.7034 92.8181 16.1655 93.1049 16.4312C93.3916 16.7084 93.8098 16.847 94.3714 16.847C94.7896 16.847 95.1361 16.7777 95.4228 16.6276C95.7096 16.4774 96.0322 16.2579 96.3906 15.9806L97 16.8701C96.5221 17.4478 95.9008 17.933 95.1241 18.3373C94.3355 18.707 93.4992 18.9149 92.5791 18.9149ZM80.0216 17.7828C81.073 17.7828 81.8496 17.3669 82.3395 16.5467C82.8294 15.7149 83.0803 14.4557 83.0803 12.7691C83.0803 11.0593 82.8294 9.777 82.3395 8.94523C81.8496 8.11346 81.1327 7.69756 80.2008 7.69756C79.687 7.69756 79.2091 7.84775 78.7789 8.14812C78.3368 8.44848 78.0023 8.79503 77.7753 9.17626V16.4427C77.9784 16.8355 78.289 17.159 78.6953 17.4131C79.1254 17.6557 79.5556 17.7828 80.0216 17.7828ZM72.2671 23.2702L73.8682 21.7568V8.86436L72.4224 7.27012V6.75029L77.3332 5.73368L77.6797 6.05714L77.5244 7.90553H77.7872C78.3607 7.24704 78.994 6.72719 79.687 6.32286C80.38 5.91852 81.1088 5.72211 81.8735 5.72211C82.9369 5.72211 83.8689 5.97628 84.6814 6.49614C85.4938 7.00444 86.1271 7.73222 86.5811 8.67952C87.0352 9.61526 87.2622 10.7012 87.2622 11.9373C87.2622 13.2774 86.9874 14.4788 86.4378 15.5301C85.8881 16.5813 85.0876 17.4131 84.0481 18.0139C83.0086 18.6146 81.766 18.9149 80.3322 18.9149C79.4122 18.9149 78.5639 18.7185 77.7753 18.3258V21.7799L79.5436 23.2817V23.79H72.2671V23.2702ZM66.3288 6.88891C65.5163 6.88891 64.9309 7.30481 64.5725 8.12502C64.214 8.94524 64.0109 9.93873 63.9511 11.1055L68.3839 10.8398C68.3839 9.39576 68.2167 8.3676 67.8702 7.77843C67.5356 7.18926 67.0099 6.88891 66.3288 6.88891ZM67.918 16.824C68.3959 16.824 68.838 16.7431 69.2323 16.5698C69.6266 16.3965 69.9731 16.1886 70.2479 15.9691C70.5227 15.7496 70.8333 15.4608 71.1679 15.1026L71.9923 15.9575C71.2157 16.9164 70.3673 17.6442 69.4712 18.1525C68.5632 18.6608 67.4759 18.9149 66.1735 18.9149C64.919 18.9149 63.8078 18.6492 62.8638 18.1063C61.9199 17.5633 61.1791 16.8124 60.6654 15.8536C60.1396 14.8947 59.8887 13.7857 59.8887 12.5496C59.8887 11.221 60.1636 10.0312 60.7251 8.99145C61.2867 7.95174 62.0753 7.15459 63.0789 6.57698C64.0826 5.99936 65.2416 5.71055 66.532 5.71055C67.7148 5.71055 68.7543 5.98781 69.6266 6.54232C70.4988 7.09683 71.1679 7.8362 71.6219 8.79505C72.076 9.74234 72.303 10.8052 72.303 11.9835H63.9272C63.9392 12.9424 64.1303 13.7972 64.4649 14.525C64.8114 15.2528 65.2774 15.8189 65.8867 16.2232C66.4961 16.6275 67.1772 16.824 67.918 16.824ZM53.6876 18.9149C52.4689 18.9149 51.3935 18.6608 50.4615 18.1293C49.5176 17.6095 48.7888 16.8702 48.275 15.9113C47.7493 14.9525 47.4864 13.855 47.4864 12.5958C47.4864 11.2442 47.7971 10.0427 48.4064 9.00298C49.0278 7.96327 49.8761 7.15459 50.9753 6.57698C52.0626 5.99936 53.3172 5.71055 54.7032 5.71055C55.4081 5.71055 56.1728 5.77989 56.9853 5.91852C57.7978 6.05715 58.455 6.21886 58.9687 6.4037L58.3355 10.0658H57.6305C56.7941 8.74884 56.0294 7.69758 55.3603 6.92357C55.2887 6.91202 55.1931 6.88889 55.0736 6.86579C54.9541 6.84268 54.8346 6.83113 54.739 6.83113C54.1297 6.83113 53.592 7.01598 53.1141 7.38566C52.6361 7.75533 52.2657 8.28675 52.0029 8.97989C51.74 9.67303 51.6086 10.4817 51.6086 11.3943C51.6086 12.5149 51.7759 13.4738 52.0865 14.294C52.4091 15.1027 52.8631 15.7265 53.4486 16.1655C54.0341 16.5929 54.7152 16.8124 55.4918 16.8124C56.137 16.8124 56.7344 16.6507 57.3079 16.3387C57.8814 16.0153 58.3952 15.634 58.8612 15.1719L59.6139 15.9691C58.9329 16.8586 58.1084 17.5633 57.1167 18.0947C56.1131 18.6377 54.978 18.9149 53.6876 18.9149ZM31.7984 18.1063L33.3875 16.5929V8.86436L31.9418 7.2586V6.76182L36.8525 5.73368L37.199 6.05714L37.0437 7.90553H37.3185C37.9637 7.25859 38.6925 6.72719 39.4931 6.32286C40.2936 5.91852 41.1419 5.71055 42.038 5.71055C42.7788 5.71055 43.4599 5.87231 44.0693 6.17267C44.6667 6.48459 45.1446 6.91202 45.4911 7.46653C45.8376 8.02104 46.0049 8.64488 46.0049 9.34957V16.5698L47.5821 18.0832V18.5915H40.5684V18.0832L42.0739 16.5698V10.008C42.0739 9.31489 41.8947 8.74883 41.5482 8.32139C41.2017 7.89396 40.7476 7.68603 40.198 7.68603C39.7081 7.68603 39.2063 7.85932 38.6925 8.19434C38.1907 8.54091 37.7367 8.93367 37.3304 9.37267V16.5813L38.8359 18.0947V18.603H31.8223V18.1063H31.7984ZM24.737 17.7828C25.657 17.7828 26.3619 17.3554 26.8637 16.4889C27.3656 15.6225 27.6165 14.2593 27.6165 12.4109C27.6165 10.551 27.3656 9.16471 26.8518 8.24052C26.338 7.31633 25.6331 6.86579 24.7131 6.86579C23.805 6.86579 23.1001 7.31633 22.5863 8.24052C22.0845 9.15316 21.8335 10.551 21.8335 12.4225C21.8335 14.2824 22.0845 15.6341 22.5863 16.5005C23.112 17.3554 23.8289 17.7828 24.737 17.7828ZM24.725 18.9149C23.3988 18.9149 22.192 18.6261 21.1166 18.0716C20.0413 17.5055 19.193 16.72 18.5836 15.7149C17.9743 14.7098 17.6636 13.5777 17.6636 12.3301C17.6636 11.0824 17.9743 9.96183 18.5836 8.96832C19.2049 7.96327 20.0533 7.17772 21.1286 6.6001C22.2039 6.02248 23.4107 5.73368 24.725 5.73368C26.0513 5.73368 27.2581 6.02248 28.3334 6.6001C29.4087 7.17772 30.2571 7.96327 30.8784 8.96832C31.4997 9.97338 31.7984 11.094 31.7984 12.3301C31.7984 13.5777 31.4877 14.7098 30.8784 15.7149C30.2571 16.72 29.4087 17.5055 28.3334 18.0716C27.2581 18.6261 26.0513 18.9149 24.725 18.9149ZM10.184 18.9149C8.32007 18.9149 6.65928 18.5337 5.2016 17.7597C3.74391 16.9857 2.60882 15.9113 1.79634 14.5366C0.983855 13.1503 0.577591 11.5907 0.577591 9.84632C0.577591 8.04415 0.971895 6.43838 1.78438 5.01743C2.58491 3.59649 3.72001 2.4759 5.2016 1.67878C6.67123 0.870116 8.37983 0.477325 10.3154 0.477325C11.1757 0.477325 11.9284 0.512002 12.5736 0.569764C13.2189 0.627526 13.7924 0.708383 14.2822 0.812354C14.7721 0.904773 15.4174 1.05495 16.182 1.23979L16.7197 6.36904H15.9072C15.6324 5.47951 15.2501 4.69397 14.7363 4.01238C14.2345 3.33079 13.6251 2.7878 12.9082 2.39502C12.1913 2.00224 11.4027 1.80588 10.5305 1.80588C8.71437 1.80588 7.36421 2.48745 6.45615 3.85063C5.54808 5.20226 5.10599 7.18929 5.10599 9.78857C5.10599 12.3647 5.57198 14.3171 6.49199 15.6225C7.41201 16.9279 8.73825 17.5864 10.4707 17.5864C11.7373 17.5864 12.8485 17.1936 13.8043 16.385C14.7602 15.5878 15.4651 14.4673 15.9072 13.0117H16.7197L16.182 18.1409C15.0709 18.4297 14.115 18.6377 13.3144 18.7417C12.5139 18.8572 11.4744 18.9149 10.184 18.9149Z" fill="white"/>
</svg>
