<svg width="30" height="30" viewBox="0 0 30 30" fill="none" xmlns="http://www.w3.org/2000/svg">
<path d="M14.9725 4.2959C10.8945 4.2959 7.5769 7.61354 7.5769 11.6915C7.5769 15.7695 10.8945 19.0874 14.9725 19.0874C19.0505 19.0874 22.3682 15.7695 22.3682 11.6915C22.3682 7.61354 19.0505 4.2959 14.9725 4.2959ZM14.9725 17.338C11.8591 17.338 9.32602 14.805 9.32602 11.6915C9.32602 8.57805 11.8591 6.04501 14.9725 6.04501C18.0858 6.04501 20.6188 8.57805 20.6188 11.6915C20.6188 14.805 18.086 17.338 14.9725 17.338Z" fill="#991B1F"/>
<path d="M14.9725 0C8.52585 0 3.28125 5.2446 3.28125 11.6913C3.28125 14.2472 4.09126 16.6752 5.62386 18.7125C7.03033 20.5822 9.00101 22.0093 11.2042 22.7609L14.9725 30L18.7408 22.7609C20.9441 22.0093 22.9147 20.5822 24.3214 18.7125C25.8538 16.6752 26.6638 14.2472 26.6638 11.6913C26.6638 5.2446 21.4192 0 14.9725 0ZM17.8757 21.2025L17.5243 21.3094L14.9725 26.2115L12.4207 21.3094L12.0694 21.2025C7.85934 19.9189 5.03059 16.0968 5.03059 11.6913C5.03059 6.20934 9.49059 1.74934 14.9725 1.74934C20.4545 1.74934 24.9145 6.20934 24.9145 11.6913C24.9145 16.0968 22.0857 19.9189 17.8757 21.2025Z" fill="#991B1F"/>
</svg>
