<svg width="30" height="24" viewBox="0 0 30 24" fill="none" xmlns="http://www.w3.org/2000/svg">
<path d="M27.5 0.75H2.50002C1.12119 0.75 0 1.87119 0 3.25002V20.75C0 22.1288 1.12119 23.25 2.50002 23.25H27.5C28.8788 23.25 30 22.1288 30 20.75V3.25002C30 1.87119 28.8788 0.75 27.5 0.75ZM2.50002 1.99998H27.5C27.5921 1.99998 27.6733 2.03355 27.7597 2.05254C25.5953 4.03342 18.4185 10.599 15.907 12.8618C15.7105 13.0388 15.3938 13.25 15.0001 13.25C14.6064 13.25 14.2896 13.0388 14.0924 12.8612C11.5812 10.5987 4.40396 4.03283 2.23992 2.05266C2.32652 2.03367 2.40785 1.99998 2.50002 1.99998ZM1.24998 20.75V3.25002C1.24998 3.12756 1.28689 3.01646 1.31994 2.90455C2.9765 4.42072 7.98416 9.00182 11.2312 11.9545C7.99471 14.7346 2.98576 19.4835 1.31602 21.0758C1.28654 20.9695 1.24998 20.8655 1.24998 20.75ZM27.5 22H2.50002C2.40018 22 2.31141 21.9652 2.21818 21.9429C3.94359 20.2981 8.98441 15.5219 12.164 12.8018C12.5785 13.1778 12.9571 13.5206 13.2556 13.7896C13.7708 14.2547 14.3737 14.5 15 14.5C15.6263 14.5 16.2292 14.2546 16.7438 13.7902C17.0423 13.5211 17.4213 13.178 17.836 12.8018C21.0158 15.5216 26.0559 20.2975 27.7818 21.9429C27.6886 21.9652 27.5999 22 27.5 22ZM28.75 20.75C28.75 20.8655 28.7135 20.9695 28.684 21.0758C27.0137 19.4827 22.0053 14.7343 18.7689 11.9546C22.016 9.00187 27.0229 4.42119 28.6801 2.90443C28.7131 3.01635 28.75 3.1275 28.75 3.24996V20.75Z" fill="#991B1F"/>
</svg>
