<svg width="19" height="12" viewBox="0 0 19 12" fill="none" xmlns="http://www.w3.org/2000/svg">
<path d="M15.5586 7.17803C15.2555 6.79522 15.3422 6.62491 15.5586 6.28272C15.5625 6.27881 18.0648 2.821 18.3226 1.64835L18.3242 1.64756C18.4523 1.22022 18.3242 0.906158 17.7047 0.906158H15.6547C15.1328 0.906158 14.8922 1.17569 14.7633 1.47725C14.7633 1.47725 13.7195 3.97569 12.243 5.59522C11.7664 6.06319 11.5461 6.21319 11.2859 6.21319C11.1578 6.21319 10.9586 6.06319 10.9586 5.63584V1.64756C10.9586 1.13506 10.8125 0.906158 10.3805 0.906158H7.15703C6.82969 0.906158 6.63515 1.14522 6.63515 1.36788C6.63515 1.85381 7.37344 1.96553 7.45 3.33272V6.29913C7.45 6.94913 7.33203 7.06866 7.07031 7.06866C6.37344 7.06866 4.68203 4.56006 3.67969 1.68897C3.47734 1.13194 3.27969 0.90694 2.75391 0.90694H0.703125C0.117969 0.90694 0 1.17647 0 1.47803C0 2.01085 0.696874 4.66006 3.24062 8.16006C4.93594 10.5491 7.32343 11.8437 9.49531 11.8437C10.8008 11.8437 10.9602 11.5562 10.9602 11.0616C10.9602 8.77881 10.8422 8.56319 11.4961 8.56319C11.7992 8.56319 12.3211 8.71319 13.5398 9.86553C14.9328 11.2319 15.1617 11.8437 15.9414 11.8437H17.9914C18.5758 11.8437 18.8719 11.5562 18.7016 10.989C18.3117 9.796 15.6773 7.34209 15.5586 7.17803Z" fill="white"/>
</svg>
