<svg width="15" height="16" viewBox="0 0 15 16" fill="none" xmlns="http://www.w3.org/2000/svg">
<path d="M7.50187 0.749985H7.49812C3.36281 0.749985 0 4.11373 0 8.24998C0 9.89061 0.52875 11.4112 1.42781 12.6459L0.493125 15.4322L3.37594 14.5106C4.56187 15.2962 5.97656 15.75 7.50187 15.75C11.6372 15.75 15 12.3853 15 8.24998C15 4.11467 11.6372 0.749985 7.50187 0.749985ZM11.8659 11.3409C11.685 11.8519 10.9669 12.2756 10.3941 12.3994C10.0022 12.4828 9.49031 12.5494 7.76718 11.835C5.56312 10.9219 4.14375 8.68217 4.03312 8.53686C3.92719 8.39154 3.1425 7.35092 3.1425 6.27467C3.1425 5.19842 3.68906 4.67436 3.90937 4.44936C4.09031 4.26467 4.38937 4.1803 4.67625 4.1803C4.76906 4.1803 4.8525 4.18498 4.9275 4.18873C5.14781 4.19811 5.25844 4.21123 5.40375 4.55905C5.58468 4.99498 6.02531 6.07123 6.07781 6.18186C6.13125 6.29248 6.18468 6.44248 6.10968 6.58779C6.03937 6.73779 5.9775 6.80436 5.86687 6.93186C5.75625 7.05936 5.65125 7.15686 5.54062 7.29373C5.43937 7.41279 5.325 7.54029 5.4525 7.76061C5.58 7.97623 6.02062 8.69529 6.66937 9.27279C7.50656 10.0181 8.18531 10.2562 8.42812 10.3575C8.60906 10.4325 8.82468 10.4147 8.95687 10.274C9.12468 10.0931 9.33187 9.79311 9.54281 9.49779C9.69281 9.28592 9.88218 9.25967 10.0809 9.33467C10.2834 9.40498 11.355 9.93467 11.5753 10.0444C11.7956 10.155 11.9409 10.2075 11.9944 10.3003C12.0469 10.3931 12.0469 10.829 11.8659 11.3409Z" fill="white"/>
</svg>
